<?xml version="1.0" standalone="no"?>
<!DOCTYPE svg PUBLIC "-//W3C//DTD SVG 20010904//EN"
 "http://www.w3.org/TR/2001/REC-SVG-20010904/DTD/svg10.dtd">
<svg version="1.0" xmlns="http://www.w3.org/2000/svg"
 width="500.000000pt" height="500.000000pt" viewBox="0 0 500.000000 500.000000"
 preserveAspectRatio="xMidYMid meet">

<g transform="translate(0.000000,500.000000) scale(0.100000,-0.100000)"
fill="#000000" stroke="none">
<path d="M2250 4485 c-575 -73 -1101 -401 -1420 -885 -310 -472 -407 -1059
-264 -1606 72 -278 211 -548 396 -769 187 -223 389 -385 638 -510 480 -240
1016 -281 1523 -114 963 315 1539 1309 1335 2304 -46 229 -157 496 -288 695
-305 464 -796 782 -1350 875 -134 23 -427 28 -570 10z m778 -881 c174 -228
191 -499 39 -630 -84 -72 -170 -100 -337 -110 l-107 -7 18 -49 c22 -57 23
-108 4 -163 -8 -22 -15 -41 -15 -42 0 -2 119 -3 265 -3 l265 0 0 -91 0 -91
-127 7 -128 7 61 -58 c104 -100 143 -218 124 -372 -30 -232 -198 -367 -500
-402 -362 -43 -636 117 -681 395 -23 143 26 292 122 379 l51 46 -116 0 -116 0
0 90 0 90 269 0 269 0 30 34 c47 54 51 104 15 189 l-16 37 -284 0 -283 0 0 99
0 99 483 4 c466 3 483 4 527 24 25 12 56 33 68 47 72 78 32 257 -86 389 -25
27 -43 50 -41 52 40 32 155 106 163 103 6 -2 35 -34 64 -73z"/>
<path d="M2344 2401 c-148 -42 -224 -134 -232 -280 -10 -182 97 -296 303 -322
94 -12 185 -5 274 23 86 26 162 100 185 178 22 73 20 148 -5 215 -36 97 -111
161 -221 191 -73 19 -228 17 -304 -5z"/>
</g>
</svg>
